<svg width="31" height="31" viewBox="0 0 31 31" fill="none" xmlns="http://www.w3.org/2000/svg">
<path d="M18.3224 2.12184C18.3638 1.96717 18.4352 1.82216 18.5326 1.69511C18.6301 1.56806 18.7516 1.46145 18.8902 1.38137C19.0289 1.3013 19.1819 1.24933 19.3407 1.22843C19.4994 1.20753 19.6607 1.21811 19.8154 1.25957C22.0747 1.84907 24.1361 3.03018 25.7872 4.68127C27.4383 6.33236 28.6194 8.39373 29.2089 10.6531C29.2503 10.8077 29.2609 10.969 29.24 11.1278C29.2191 11.2865 29.1672 11.4396 29.0871 11.5782C29.007 11.7169 28.9004 11.8384 28.7733 11.9358C28.6463 12.0332 28.5013 12.1047 28.3466 12.1461C28.2437 12.1731 28.1377 12.187 28.0313 12.1872C27.7627 12.1872 27.5017 12.0985 27.2887 11.9348C27.0757 11.7712 26.9228 11.5418 26.8536 11.2823C26.3729 9.43788 25.4089 7.75507 24.0612 6.4073C22.7134 5.05954 21.0306 4.09559 19.1862 3.61481C19.0314 3.5736 18.8862 3.50228 18.759 3.40492C18.6318 3.30756 18.525 3.18607 18.4448 3.04741C18.3645 2.90874 18.3124 2.75562 18.2914 2.59681C18.2704 2.43799 18.281 2.27659 18.3224 2.12184ZM17.9674 8.48981C20.0683 9.05044 21.418 10.4002 21.9786 12.501C22.0478 12.7605 22.2007 12.9899 22.4137 13.1536C22.6267 13.3172 22.8877 13.4059 23.1563 13.4059C23.2627 13.4057 23.3687 13.3919 23.4716 13.3648C23.6263 13.3234 23.7713 13.252 23.8983 13.1546C24.0254 13.0571 24.132 12.9356 24.2121 12.797C24.2922 12.6583 24.3441 12.5053 24.365 12.3465C24.3859 12.1878 24.3753 12.0265 24.3339 11.8718C23.5539 8.95293 21.5155 6.91457 18.5966 6.13457C18.2843 6.05114 17.9516 6.09519 17.6718 6.25704C17.3919 6.41889 17.1878 6.68528 17.1044 6.9976C17.021 7.30993 17.065 7.6426 17.2269 7.92244C17.3887 8.20229 17.6551 8.40637 17.9674 8.48981ZM30.4505 23.0158C30.1788 25.0801 29.1651 26.9749 27.5985 28.3464C26.0319 29.7179 24.0196 30.4722 21.9375 30.4684C9.84142 30.4684 1.3785e-05 20.627 1.3785e-05 8.53094C-0.00371861 6.44885 0.750592 4.43659 2.12206 2.86999C3.49353 1.3034 5.38837 0.289612 7.45267 0.0179729C7.97468 -0.0457663 8.50331 0.0610285 8.95963 0.322415C9.41596 0.583801 9.77552 0.985759 9.98462 1.46829L13.2021 8.65129V8.66958C13.3622 9.03894 13.4283 9.4422 13.3946 9.84335C13.3608 10.2445 13.2282 10.631 13.0086 10.9684C12.9812 11.0096 12.9523 11.0477 12.9218 11.0857L9.75001 14.8456C10.8911 17.1643 13.3164 19.5682 15.6655 20.7123L19.3736 17.5573C19.41 17.5267 19.4481 17.4982 19.4878 17.472C19.825 17.2471 20.2128 17.1099 20.6163 17.0726C21.0199 17.0354 21.4263 17.0994 21.7989 17.2587L21.8187 17.2679L28.9956 20.4838C29.479 20.6922 29.8819 21.0514 30.1442 21.5078C30.4064 21.9642 30.5139 22.4932 30.4505 23.0158ZM28.0313 22.7111H28.0145L20.8543 19.5043L17.1448 22.6593C17.1089 22.6899 17.0712 22.7184 17.032 22.7446C16.6813 22.9786 16.2758 23.1176 15.8553 23.1481C15.4347 23.1785 15.0134 23.0993 14.6326 22.9183C11.7792 21.5396 8.93497 18.7166 7.55474 15.8937C7.37197 15.5157 7.28996 15.0968 7.31665 14.6778C7.34334 14.2588 7.47783 13.8537 7.70708 13.5019C7.73286 13.4606 7.7619 13.4213 7.79392 13.3846L10.9688 9.6202L7.76955 2.46004C7.76893 2.45397 7.76893 2.44784 7.76955 2.44176C6.2922 2.63448 4.93576 3.35912 3.95427 4.47999C2.97277 5.60086 2.43352 7.04108 2.43751 8.53094C2.44316 13.7009 4.49943 18.6576 8.15517 22.3133C11.8109 25.969 16.7675 28.0253 21.9375 28.0309C23.4265 28.0361 24.8663 27.4987 25.9878 26.5193C27.1093 25.54 27.8358 24.1856 28.0313 22.7096V22.7111Z" fill="#2B6777"/>
</svg>
