<svg width="36" height="36" viewBox="0 0 36 36" fill="none" xmlns="http://www.w3.org/2000/svg">
<path d="M7.91817 0H19.5818C20.6892 0 21.6022 -1.36594e-08 22.3465 0.0605C23.1183 0.124667 23.8297 0.260333 24.497 0.5995C25.5318 1.1268 26.3732 1.96815 26.9005 3.003C27.2415 3.67033 27.3772 4.38167 27.4395 5.1535C27.5 5.89783 27.5 6.81083 27.5 7.91817V8.25H28.2333C29.1555 8.25 29.9163 8.25 30.5378 8.29217C31.1832 8.33617 31.7808 8.4315 32.3547 8.668C33.0222 8.94441 33.6287 9.34961 34.1395 9.86047C34.6504 10.3713 35.0556 10.9778 35.332 11.6453C35.5703 12.2192 35.662 12.8168 35.7078 13.4603C35.75 14.0837 35.75 14.8445 35.75 15.7648V15.8602C35.75 16.7805 35.75 17.5413 35.7078 18.1628C35.6814 18.7576 35.5645 19.3449 35.3613 19.9045C34.304 23.5085 32.3722 26.7953 29.7379 29.4724C27.1036 32.1496 23.8485 34.1341 20.262 35.2495L19.9155 35.3577C19.3533 35.5655 18.7618 35.683 18.1628 35.706C17.5395 35.75 16.7805 35.75 15.8602 35.75H15.7648C14.8445 35.75 14.0837 35.75 13.4622 35.7078C12.8168 35.6638 12.2192 35.5685 11.6453 35.332C10.9778 35.0556 10.3713 34.6504 9.86047 34.1395C9.34961 33.6287 8.94441 33.0222 8.668 32.3547C8.42967 31.7808 8.338 31.1832 8.29217 30.5397C8.25 29.9163 8.25 29.1555 8.25 28.2352V27.5H7.92C6.81267 27.5 5.89783 27.5 5.1535 27.4395C4.38167 27.3753 3.67033 27.2415 3.003 26.9005C1.96815 26.3732 1.1268 25.5318 0.5995 24.497C0.260333 23.8297 0.122833 23.1183 0.0605 22.3465C-1.36594e-08 21.6022 0 20.6892 0 19.5818V7.91817C0 6.81083 -1.36594e-08 5.89783 0.0605 5.1535C0.124667 4.38167 0.260333 3.67033 0.5995 3.003C1.1268 1.96815 1.96815 1.1268 3.003 0.5995C3.67033 0.260333 4.38167 0.122833 5.1535 0.0605C5.89783 -1.36594e-08 6.81083 0 7.91817 0ZM11 28.1875C11 29.1665 11 29.8338 11.0367 30.3508C11.0697 30.8568 11.1338 31.119 11.209 31.3023C11.3472 31.6361 11.5498 31.9393 11.8052 32.1948C12.0607 32.4502 12.3639 32.6528 12.6977 32.791C12.881 32.8662 13.1432 32.9303 13.6492 32.9633C14.1662 33 14.8335 33 15.8125 33C16.7915 33 17.4588 33 17.9758 32.9633C18.4818 32.9303 18.744 32.8662 18.9273 32.791C19.2611 32.6528 19.5643 32.4502 19.8198 32.1948C20.0752 31.9393 20.2778 31.6361 20.416 31.3023C20.4912 31.119 20.5535 30.8568 20.5883 30.3508C20.625 29.8338 20.625 29.1665 20.625 28.1875V28.1398C20.625 27.2195 20.625 26.4587 20.6672 25.8372C20.7112 25.1918 20.8065 24.5942 21.043 24.0203C21.3194 23.3528 21.7246 22.7463 22.2355 22.2355C22.7463 21.7246 23.3528 21.3194 24.0203 21.043C24.5942 20.8047 25.1918 20.713 25.8353 20.6672C26.4587 20.625 27.2195 20.625 28.1398 20.625H28.1875C29.1665 20.625 29.8338 20.625 30.3508 20.5883C30.8568 20.5535 31.119 20.4912 31.3023 20.416C31.6361 20.2778 31.9393 20.0752 32.1948 19.8198C32.4502 19.5643 32.6528 19.2611 32.791 18.9273C32.8662 18.744 32.9303 18.4818 32.9633 17.9758C33 17.4588 33 16.7915 33 15.8125C33 14.8335 33 14.1662 32.9633 13.6492C32.9303 13.1432 32.8662 12.881 32.791 12.6977C32.6528 12.3639 32.4502 12.0607 32.1948 11.8052C31.9393 11.5498 31.6361 11.3472 31.3023 11.209C31.119 11.1338 30.8568 11.0697 30.3508 11.0367C29.8338 11 29.1665 11 28.1875 11H16.225C15.048 11 14.245 11 13.6272 11.0513C13.024 11.1008 12.716 11.1907 12.5015 11.2988C11.9836 11.5626 11.5626 11.9836 11.2988 12.5015C11.1888 12.716 11.1008 13.024 11.0513 13.6272C11.0018 14.2468 11 15.048 11 16.225V28.1875Z" fill="#2B6777"/>
</svg>
