<svg width="74" height="31" viewBox="0 0 74 31" fill="none" xmlns="http://www.w3.org/2000/svg">
<g filter="url(#filter0_d_571_1371)">
<path d="M15.392 22.7202C11.7653 22.7202 8.95995 21.7389 6.97595 19.7762C4.99195 17.8136 3.99995 15.0082 3.99995 11.3602C3.99995 7.73357 4.99195 4.9389 6.97595 2.97623C8.98129 0.992233 11.7866 0.000232697 15.392 0.000232697C16.8426 0.000232697 18.1973 0.149566 19.456 0.448233C20.7146 0.746899 21.76 1.17357 22.592 1.72823C22.784 1.85623 22.88 1.9949 22.88 2.14423C22.88 2.2509 22.8373 2.3789 22.752 2.52823L21.824 4.12823C21.696 4.32023 21.568 4.41623 21.44 4.41623C21.376 4.41623 21.2373 4.3629 21.024 4.25623C19.5733 3.44557 17.8453 3.04023 15.84 3.04023C13.408 3.04023 11.4986 3.73357 10.112 5.12023C8.72529 6.48557 8.03195 8.56557 8.03195 11.3602C8.03195 14.1762 8.70395 16.2669 10.048 17.6322C11.392 18.9976 13.2373 19.6802 15.584 19.6802C16.4373 19.6802 17.2693 19.6162 18.08 19.4882C18.8906 19.3389 19.552 19.1362 20.064 18.8802V12.9602H15.84C15.4133 12.9602 15.1146 12.8749 14.944 12.7042C14.7733 12.5122 14.688 12.2136 14.688 11.8082V10.9762C14.688 10.5709 14.7733 10.2936 14.944 10.1442C15.1146 9.97357 15.4133 9.88823 15.84 9.88823H22.592C23.0613 9.88823 23.392 10.0056 23.584 10.2402C23.7973 10.4536 23.904 10.7949 23.904 11.2642V19.7122C23.904 20.0322 23.872 20.2776 23.808 20.4482C23.744 20.5976 23.6053 20.7362 23.392 20.8642C21.4293 22.1016 18.7626 22.7202 15.392 22.7202ZM28.2302 22.2402C27.8035 22.2402 27.4942 22.1442 27.3022 21.9522C27.1315 21.7602 27.0462 21.4722 27.0462 21.0882V1.66423C27.0462 1.2589 27.1315 0.960233 27.3022 0.768234C27.4942 0.576234 27.8035 0.480234 28.2302 0.480234H29.9262C30.3529 0.480234 30.6622 0.576234 30.8542 0.768234C31.0462 0.960233 31.1422 1.2589 31.1422 1.66423V21.0882C31.1422 21.4722 31.0462 21.7602 30.8542 21.9522C30.6835 22.1442 30.3742 22.2402 29.9262 22.2402H28.2302ZM36.1052 22.2402C35.6785 22.2402 35.3692 22.1442 35.1772 21.9522C35.0065 21.7602 34.9212 21.4722 34.9212 21.0882V1.66423C34.9212 1.2589 35.0065 0.960233 35.1772 0.768234C35.3692 0.576234 35.6785 0.480234 36.1052 0.480234H49.4172C49.8439 0.480234 50.1319 0.565567 50.2812 0.736233C50.4519 0.9069 50.5372 1.1949 50.5372 1.60023V2.46423C50.5372 2.86957 50.4519 3.16823 50.2812 3.36023C50.1319 3.5309 49.8439 3.61623 49.4172 3.61623H39.0172V9.79223H46.5692C46.9959 9.79223 47.2945 9.87757 47.4652 10.0482C47.6359 10.2189 47.7212 10.5069 47.7212 10.9122V11.7762C47.7212 12.1816 47.6359 12.4802 47.4652 12.6722C47.2945 12.8429 46.9959 12.9282 46.5692 12.9282H39.0172V21.0882C39.0172 21.4722 38.9212 21.7602 38.7292 21.9522C38.5585 22.1442 38.2492 22.2402 37.8012 22.2402H36.1052ZM59.7022 22.2402C59.2755 22.2402 58.9662 22.1442 58.7742 21.9522C58.5822 21.7602 58.4862 21.4722 58.4862 21.0882V3.61623H52.8862C52.4595 3.61623 52.1609 3.5309 51.9902 3.36023C51.8409 3.18957 51.7662 2.90157 51.7662 2.49623V1.63223C51.7662 1.2269 51.8409 0.9389 51.9902 0.768234C52.1609 0.576234 52.4595 0.480234 52.8862 0.480234H68.1822C68.6089 0.480234 68.9075 0.576234 69.0782 0.768234C69.2489 0.9389 69.3342 1.2269 69.3342 1.63223V2.49623C69.3342 2.90157 69.2489 3.18957 69.0782 3.36023C68.9075 3.5309 68.6089 3.61623 68.1822 3.61623H62.5822V21.0882C62.5822 21.4722 62.4862 21.7602 62.2942 21.9522C62.1235 22.1442 61.8142 22.2402 61.3662 22.2402H59.7022Z" fill="#2B6777"/>
</g>
<defs>
<filter id="filter0_d_571_1371" x="0" y="0" width="73.334" height="30.7207" filterUnits="userSpaceOnUse" color-interpolation-filters="sRGB">
<feFlood flood-opacity="0" result="BackgroundImageFix"/>
<feColorMatrix in="SourceAlpha" type="matrix" values="0 0 0 0 0 0 0 0 0 0 0 0 0 0 0 0 0 0 127 0" result="hardAlpha"/>
<feOffset dy="4"/>
<feGaussianBlur stdDeviation="2"/>
<feComposite in2="hardAlpha" operator="out"/>
<feColorMatrix type="matrix" values="0 0 0 0 0 0 0 0 0 0 0 0 0 0 0 0 0 0 0.25 0"/>
<feBlend mode="normal" in2="BackgroundImageFix" result="effect1_dropShadow_571_1371"/>
<feBlend mode="normal" in="SourceGraphic" in2="effect1_dropShadow_571_1371" result="shape"/>
</filter>
</defs>
</svg>
