<svg width="85" height="85" viewBox="0 0 85 85" fill="none" xmlns="http://www.w3.org/2000/svg">
<path d="M57.8472 63.4542C57.8472 51.8818 67.229 42.4999 78.8014 42.4999C67.229 42.4999 57.8472 33.118 57.8472 21.5474C57.8472 17.8676 58.8158 14.2516 60.6522 11.0605C58.8107 14.2442 56.1644 16.8876 52.9788 18.7256C49.7931 20.5636 46.1801 21.5315 42.5023 21.5322C38.8244 21.5329 35.2111 20.5664 32.0247 18.7297C28.8383 16.893 26.191 14.2506 24.3483 11.0676C26.1807 14.2566 27.1465 17.8695 27.1498 21.5474C27.1515 33.1198 17.7697 42.4999 6.19727 42.4999C17.7697 42.4999 27.1515 51.8818 27.1515 63.4542C27.1515 67.1304 26.1829 70.7447 24.3483 73.9358C26.1897 70.7517 28.8363 68.1081 32.0225 66.2703C35.2087 64.4326 38.8222 63.4653 42.5004 63.4657C46.1785 63.466 49.7919 64.434 52.9777 66.2724C56.1635 68.1108 58.8096 70.7549 60.6504 73.9393C58.8162 70.7484 57.8498 67.1346 57.8472 63.4542Z" stroke="white" stroke-width="0.5" stroke-linecap="round" stroke-linejoin="round"/>
<path d="M6.19727 52.9776C8.03669 52.9774 9.84375 53.4615 11.4367 54.3812C13.0297 55.3009 14.3525 56.6238 15.272 58.2169C16.1915 59.81 16.6753 61.6172 16.6748 63.4566C16.6744 65.296 16.1896 67.1029 15.2692 68.6955M69.7312 68.6973C68.8107 67.1046 68.3256 65.2976 68.3249 63.4581C68.3241 61.6185 68.8077 59.8111 69.727 58.2177M69.727 58.2177C70.6463 56.6243 71.9689 55.301 73.5618 54.3808C75.1548 53.4607 76.9619 52.9761 78.8014 52.9758M69.727 58.2177L57.2716 51.0261M51.5713 5.82031C50.6518 7.41192 49.3297 8.73357 47.7378 9.65257C46.1459 10.5716 44.3403 11.0555 42.5021 11.0559C40.664 11.0563 38.8582 10.573 37.2659 9.65461C35.6736 8.73624 34.351 7.4151 33.4309 5.82385M6.19727 32.0216C8.03669 32.0218 9.84375 31.5377 11.4367 30.618C13.0297 29.6983 14.3525 28.3753 15.272 26.7822C16.1915 25.1891 16.6753 23.382 16.6748 21.5426C16.6744 19.7032 16.1896 17.8963 15.2692 16.3036M69.7312 16.3019C68.8107 17.8946 68.3256 19.7015 68.3249 21.5411C68.3241 23.3807 68.8077 25.1881 69.727 26.7815C70.6463 28.3749 71.9689 29.6982 73.5618 30.6184C75.1548 31.5385 76.9619 32.0231 78.8014 32.0233M51.5713 79.1789C50.6518 77.5873 49.3297 76.2656 47.7378 75.3466C46.1459 74.4276 44.3403 73.9436 42.5021 73.9433C40.664 73.9429 38.8582 74.4262 37.2659 75.3446C35.6736 76.2629 34.351 77.5841 33.4309 79.1753M27.7306 51.0261L15.2746 58.2193M27.7306 51.0261L42.5011 59.5545L57.2716 51.0261M27.7306 51.0261V33.973L42.4994 25.4447M57.2716 51.0261L57.2699 33.9712L42.4994 25.4447M42.4994 25.4447V11.0549" stroke="white" stroke-width="0.5" stroke-linecap="round" stroke-linejoin="round"/>
<path d="M69.725 26.782L42.5002 42.5M42.5002 42.5L15.2754 26.7803M42.5002 42.5V73.9446" stroke="white" stroke-width="0.5" stroke-linecap="round" stroke-linejoin="round"/>
</svg>
