<svg width="12" height="9" viewBox="0 0 12 9" fill="none" xmlns="http://www.w3.org/2000/svg">
<path d="M1.01 8.75C0.722083 8.75 0.481875 8.65375 0.289375 8.46125C0.096875 8.26875 0.000416667 8.02833 0 7.74V1.01C0 0.722083 0.0964584 0.481875 0.289375 0.289375C0.482292 0.0968749 0.722292 0.000416667 1.00937 0H10.2406C10.5281 0 10.7681 0.0964582 10.9606 0.289375C11.1531 0.482292 11.2496 0.7225 11.25 1.01V7.74063C11.25 8.02812 11.1535 8.26833 10.9606 8.46125C10.7677 8.65417 10.5277 8.75042 10.2406 8.75H1.01ZM10.625 1.17813L5.905 4.26813C5.86083 4.29104 5.81625 4.31042 5.77125 4.32625C5.72583 4.34167 5.67708 4.34937 5.625 4.34937C5.57292 4.34937 5.52417 4.34167 5.47875 4.32625C5.43333 4.31083 5.38875 4.29146 5.345 4.26813L0.625 1.1775V7.74C0.625 7.8525 0.661042 7.94479 0.733125 8.01687C0.805208 8.08896 0.8975 8.125 1.01 8.125H10.2406C10.3527 8.125 10.4448 8.08896 10.5169 8.01687C10.589 7.94479 10.625 7.8525 10.625 7.74V1.17813ZM5.625 3.75L10.4325 0.625H0.8175L5.625 3.75ZM0.625 1.31V0.803125V0.824375V0.625V0.825V0.7925V1.31Z" fill="white"/>
</svg>
