<svg width="11" height="14" viewBox="0 0 11 14" fill="none" xmlns="http://www.w3.org/2000/svg">
<path d="M5.375 3C4.90527 3 4.44609 3.13929 4.05552 3.40026C3.66495 3.66123 3.36054 4.03215 3.18079 4.46613C3.00103 4.9001 2.95399 5.37763 3.04563 5.83834C3.13727 6.29904 3.36347 6.72223 3.69562 7.05438C4.02777 7.38653 4.45096 7.61272 4.91166 7.70436C5.37237 7.796 5.8499 7.74897 6.28387 7.56921C6.71785 7.38946 7.08877 7.08505 7.34974 6.69448C7.61071 6.30391 7.75 5.84473 7.75 5.375C7.75 4.74511 7.49978 4.14102 7.05438 3.69562C6.60898 3.25022 6.00489 3 5.375 3ZM5.375 7C5.05361 7 4.73943 6.9047 4.4722 6.72614C4.20497 6.54758 3.99669 6.29379 3.8737 5.99686C3.7507 5.69993 3.71852 5.3732 3.78122 5.05798C3.84392 4.74276 3.99869 4.45321 4.22595 4.22595C4.45321 3.99869 4.74276 3.84392 5.05798 3.78122C5.3732 3.71852 5.69993 3.7507 5.99686 3.8737C6.29379 3.99669 6.54758 4.20497 6.72614 4.4722C6.9047 4.73943 7 5.05361 7 5.375C7 5.80598 6.8288 6.2193 6.52405 6.52405C6.2193 6.82879 5.80598 7 5.375 7ZM5.375 0C3.94997 0.00165413 2.58378 0.568478 1.57613 1.57613C0.568478 2.58378 0.00165413 3.94997 0 5.375C0 7.30688 0.89625 9.35875 2.59188 11.3088C3.35719 12.1932 4.21853 12.9898 5.16 13.6838C5.22302 13.7279 5.29808 13.7515 5.375 13.7515C5.45192 13.7515 5.52698 13.7279 5.59 13.6838C6.53147 12.9898 7.39281 12.1932 8.15812 11.3088C9.85375 9.35875 10.75 7.30875 10.75 5.375C10.7483 3.94997 10.1815 2.58378 9.17387 1.57613C8.16622 0.568478 6.80003 0.00165413 5.375 0ZM5.375 12.9069C4.4375 12.1831 0.75 9.10125 0.75 5.375C0.75 4.14837 1.23728 2.97199 2.10463 2.10463C2.97199 1.23728 4.14837 0.75 5.375 0.75C6.60163 0.75 7.77801 1.23728 8.64537 2.10463C9.51272 2.97199 10 4.14837 10 5.375C10 9.10125 6.3125 12.1831 5.375 12.9069Z" fill="white"/>
</svg>
