<svg width="13" height="13" viewBox="0 0 13 13" fill="none" xmlns="http://www.w3.org/2000/svg">
<path d="M11.6667 12.6667C11.9319 12.6667 12.1862 12.5613 12.3738 12.3738C12.5613 12.1862 12.6667 11.9319 12.6667 11.6667V9.33333C12.6667 9.06812 12.5613 8.81376 12.3738 8.62623C12.1862 8.43869 11.9319 8.33333 11.6667 8.33333C10.8867 8.33333 10.12 8.21333 9.38667 7.96667C9.21134 7.91133 9.0242 7.90506 8.84557 7.94854C8.66693 7.99203 8.50361 8.0836 8.37333 8.21333L7.41333 9.17333C5.75483 8.26828 4.39172 6.90517 3.48667 5.24667L4.44 4.29333C4.71333 4.03333 4.81333 3.64667 4.69333 3.27333C4.45333 2.54667 4.33333 1.78 4.33333 1C4.33333 0.734784 4.22798 0.48043 4.04044 0.292893C3.8529 0.105357 3.59855 0 3.33333 0H1C0.734784 0 0.48043 0.105357 0.292893 0.292893C0.105357 0.48043 0 0.734784 0 1C0 7.43333 5.23333 12.6667 11.6667 12.6667ZM1 0.666667H3.33333C3.42174 0.666667 3.50652 0.701786 3.56904 0.764298C3.63155 0.82681 3.66667 0.911595 3.66667 1C3.66667 1.85333 3.8 2.68667 4.06 3.48C4.09333 3.57333 4.08667 3.70667 3.98 3.81333L2.66667 5.12C3.76667 7.27333 5.38 8.88667 7.54 10L8.84 8.68667C8.93333 8.59333 9.06 8.56667 9.18 8.6C9.98 8.86667 10.8133 9 11.6667 9C11.7551 9 11.8399 9.03512 11.9024 9.09763C11.9649 9.16014 12 9.24493 12 9.33333V11.6667C12 11.7551 11.9649 11.8399 11.9024 11.9024C11.8399 11.9649 11.7551 12 11.6667 12C5.6 12 0.666667 7.06667 0.666667 1C0.666667 0.911595 0.701786 0.82681 0.764298 0.764298C0.82681 0.701786 0.911595 0.666667 1 0.666667Z" fill="white"/>
</svg>
