<svg width="56" height="56" viewBox="0 0 56 56" fill="none" xmlns="http://www.w3.org/2000/svg">
<path d="M51.6452 21.3659C50.7175 20.3962 49.7577 19.3971 49.3959 18.5186C49.0612 17.7138 49.0416 16.38 49.0219 15.088C48.985 12.6861 48.9456 9.96434 47.0531 8.07187C45.1607 6.17941 42.4389 6.14004 40.037 6.10312C38.745 6.08344 37.4112 6.06375 36.6064 5.72906C35.7304 5.3673 34.7287 4.40754 33.7591 3.47977C32.0611 1.84816 30.1317 0 27.5625 0C24.9933 0 23.0664 1.84816 21.3659 3.47977C20.3962 4.40754 19.3971 5.3673 18.5186 5.72906C17.7188 6.06375 16.38 6.08344 15.088 6.10312C12.6861 6.14004 9.96434 6.17941 8.07187 8.07187C6.17941 9.96434 6.15234 12.6861 6.10312 15.088C6.08344 16.38 6.06375 17.7138 5.72906 18.5186C5.3673 19.3946 4.40754 20.3962 3.47977 21.3659C1.84816 23.0639 0 24.9933 0 27.5625C0 30.1317 1.84816 32.0586 3.47977 33.7591C4.40754 34.7287 5.3673 35.7279 5.72906 36.6064C6.06375 37.4112 6.08344 38.745 6.10312 40.037C6.14004 42.4389 6.17941 45.1607 8.07187 47.0531C9.96434 48.9456 12.6861 48.985 15.088 49.0219C16.38 49.0416 17.7138 49.0612 18.5186 49.3959C19.3946 49.7577 20.3962 50.7175 21.3659 51.6452C23.0639 53.2768 24.9933 55.125 27.5625 55.125C30.1317 55.125 32.0586 53.2768 33.7591 51.6452C34.7287 50.7175 35.7279 49.7577 36.6064 49.3959C37.4112 49.0612 38.745 49.0416 40.037 49.0219C42.4389 48.985 45.1607 48.9456 47.0531 47.0531C48.9456 45.1607 48.985 42.4389 49.0219 40.037C49.0416 38.745 49.0612 37.4112 49.3959 36.6064C49.7577 35.7304 50.7175 34.7287 51.6452 33.7591C53.2768 32.0611 55.125 30.1317 55.125 27.5625C55.125 24.9933 53.2768 23.0664 51.6452 21.3659ZM38.7991 23.0491L25.0179 36.8304C24.835 37.0134 24.6179 37.1587 24.3789 37.2577C24.1399 37.3568 23.8837 37.4078 23.625 37.4078C23.3663 37.4078 23.1101 37.3568 22.8711 37.2577C22.6321 37.1587 22.415 37.0134 22.2321 36.8304L16.3259 30.9241C16.1429 30.7412 15.9978 30.5241 15.8989 30.2851C15.7999 30.0461 15.7489 29.7899 15.7489 29.5312C15.7489 29.2726 15.7999 29.0164 15.8989 28.7774C15.9978 28.5384 16.1429 28.3213 16.3259 28.1384C16.6953 27.7689 17.1963 27.5614 17.7188 27.5614C17.9774 27.5614 18.2336 27.6124 18.4726 27.7114C18.7116 27.8103 18.9287 27.9554 19.1116 28.1384L23.625 32.6542L36.0134 20.2634C36.1963 20.0804 36.4134 19.9353 36.6524 19.8363C36.8914 19.7374 37.1476 19.6864 37.4062 19.6864C37.6649 19.6864 37.9211 19.7374 38.1601 19.8363C38.3991 19.9353 38.6162 20.0804 38.7991 20.2634C38.9821 20.4463 39.1272 20.6634 39.2261 20.9024C39.3251 21.1414 39.3761 21.3976 39.3761 21.6562C39.3761 21.9149 39.3251 22.1711 39.2261 22.4101C39.1272 22.6491 38.9821 22.8662 38.7991 23.0491Z" fill="#00AC56"/>
</svg>
